<svg xmlns="http://www.w3.org/2000/svg" width="512" height="512"><g fill="none" fill-rule="nonzero"><path fill="#CB1B14" d="M0 0h512v512H0z"/><path fill="#FFF" d="M131 131h109.375v109.375H131V131zm140.625 0v109.375H381V131H271.625zm-85.9375 39.0625l23.4375-23.4375H162.25l23.4375 23.4375zM287.25 224.75v-78.125h78.125v78.125H287.25zm-117.1875-39.0625L146.625 162.25v46.875l23.4375-23.4375zM224.75 162.25l-23.4375 23.4375L224.75 209.125V162.25zm-39.0625 39.0625L162.25 224.75h46.875l-23.4375-23.4375zM240.375 381V271.625H131V381h109.375zM381 381H271.625V271.625H381V381zm-156.25-93.75v78.125h-78.125V287.25h78.125zm101.5625 23.4375L349.75 287.25h-46.875l23.4375 23.4375zM287.25 349.75l23.4375-23.4375L287.25 302.875v46.875zm54.6875-23.4375L365.375 349.75v-46.875l-23.4375 23.4375zm-15.625 15.625L302.875 365.375h46.875l-23.4375-23.4375z"/></g></svg>
