<?xml version="1.0" encoding="utf-8"?>
<!-- Generator: Adobe Illustrator 18.1.1, SVG Export Plug-In . SVG Version: 6.00 Build 0)  -->
<!DOCTYPE svg PUBLIC "-//W3C//DTD SVG 1.1//EN" "http://www.w3.org/Graphics/SVG/1.1/DTD/svg11.dtd">
<svg version="1.1" id="Layer_1" xmlns="http://www.w3.org/2000/svg" xmlns:xlink="http://www.w3.org/1999/xlink" x="0px" y="0px"
	 viewBox="0 0 612 612" enable-background="new 0 0 612 612" xml:space="preserve">
<rect fill="#E41B13" width="612" height="612"/>
<path fill="#FFFFFF" d="M133,146.4h138.4V286H133V146.4z M310.9,146.4V286h138.4V146.4H310.9z M202.2,196.2l29.6-29.9h-59.3
	L202.2,196.2z M330.7,266v-99.7h98.8V266H330.7z M182.4,216.2l-29.6-29.9v59.8L182.4,216.2z M251.6,186.3l-29.6,29.9l29.6,29.9
	V186.3z M202.2,236.1L172.5,266h59.3L202.2,236.1z M271.4,465.4V325.8H133v139.6H271.4z M449.2,465.4H310.9V325.8h138.4V465.4z
	 M251.6,345.8v99.7h-98.8v-99.7H251.6z M380.1,375.7l29.6-29.9h-59.3L380.1,375.7z M330.7,425.5l29.6-29.9l-29.6-29.9V425.5z
	 M399.8,395.6l29.6,29.9v-59.8L399.8,395.6z M380.1,415.6l-29.6,29.9h59.3L380.1,415.6z"/>
</svg>
