<?xml version="1.0" encoding="utf-8"?>
<!-- Generator: Adobe Illustrator 18.1.1, SVG Export Plug-In . SVG Version: 6.00 Build 0)  -->
<!DOCTYPE svg PUBLIC "-//W3C//DTD SVG 1.1//EN" "http://www.w3.org/Graphics/SVG/1.1/DTD/svg11.dtd">
<svg version="1.1" id="Layer_1" xmlns="http://www.w3.org/2000/svg" xmlns:xlink="http://www.w3.org/1999/xlink" x="0px" y="0px"
	 viewBox="0 90 612 612" enable-background="new 0 90 612 612" xml:space="preserve">
<rect y="90" fill="#E41B13" width="612" height="612"/>
<path fill="#FFFFFF" d="M147.9,236.5h138.4v139.6H147.9V236.5z M325.8,236.5v139.6h138.4V236.5H325.8z M217.1,286.3l29.6-29.9h-59.3
	L217.1,286.3z M345.6,356.1v-99.7h98.8v99.7H345.6z M197.2,306.3l-29.6-29.9v59.8L197.2,306.3z M266.5,276.4l-29.6,29.9l29.6,29.9
	V276.4z M217.1,326.2l-29.7,29.9h59.3L217.1,326.2z M286.2,555.5V415.9H147.9v139.6H286.2z M464.1,555.5H325.8V415.9h138.4
	L464.1,555.5L464.1,555.5z M266.5,435.9v99.7h-98.8v-99.7H266.5z M395,465.8l29.6-29.9h-59.3L395,465.8z M345.6,515.6l29.6-29.9
	l-29.6-29.9V515.6z M414.6,485.7l29.6,29.9v-59.8L414.6,485.7z M395,505.7l-29.6,29.9h59.3L395,505.7z"/>
</svg>
